{
    "accessors" : [
        {
            "bufferView" : 0,
            "componentType" : 5123,
            "count" : 233064,
            "max" : [
                41743
            ],
            "min" : [
                0
            ],
            "type" : "SCALAR"
        },
        {
            "bufferView" : 1,
            "componentType" : 5126,
            "count" : 41744,
            "max" : [
                0.23952099680900574,
                0.2842959761619568,
                0.4886090159416199
            ],
            "min" : [
                -0.23952099680900574,
                -0.2842959761619568,
                -0.4886089563369751
            ],
            "type" : "VEC3"
        },
        {
            "bufferView" : 2,
            "componentType" : 5126,
            "count" : 41744,
            "max" : [
                0.99993896484375,
                0.99993896484375,
                0.99993896484375
            ],
            "min" : [
                -0.999908447265625,
                -0.999969482421875,
                -0.999969482421875
            ],
            "type" : "VEC3"
        },
        {
            "bufferView" : 3,
            "componentType" : 5126,
            "count" : 41744,
            "max" : [
                0.9923480153083801,
                0.9860260002315044
            ],
            "min" : [
                0.007486000191420317,
                0.005087018013000488
            ],
            "type" : "VEC2"
        }
    ],
    "asset" : {
        "generator" : "Khronos Blender glTF 2.0 exporter",
        "version" : "2.0"
    },
    "bufferViews" : [
        {
            "buffer" : 0,
            "byteLength" : 466128,
            "byteOffset" : 0,
            "target" : 34963
        },
        {
            "buffer" : 0,
            "byteLength" : 500928,
            "byteOffset" : 466128,
            "target" : 34962
        },
        {
            "buffer" : 0,
            "byteLength" : 500928,
            "byteOffset" : 967056,
            "target" : 34962
        },
        {
            "buffer" : 0,
            "byteLength" : 333952,
            "byteOffset" : 1467984,
            "target" : 34962
        }
    ],
    "buffers" : [
        {
            "byteLength" : 1801936,
            "uri" : "data:application/octet-stream;base64,"
        }
    ],
    "meshes" : [
        {
            "name" : "sample",
            "primitives" : [
                {
                    "attributes" : {
                        "NORMAL" : 2,
                        "POSITION" : 1,
                        "TEXCOORD_0" : 3
                    },
                    "indices" : 0
                }
            ]
        }
    ],
    "nodes" : [
        {
            "mesh" : 0,
            "name" : "sample"
        }
    ],
    "scene" : 0,
    "scenes" : [
        {
            "name" : "Scene",
            "nodes" : [
                0
            ]
        }
    ]
}
